# xmcd
#
# Track frame offsets: 
#        150
#        20025
#        40400
#        59717
#        78630
#        100442
#        124977
#        144125
#        165705
#        185170
#        203327
#        228482
#        246150
#
# Disc length: 3707 seconds
#
# Revision: 1
# Processed by: cddbd v1.5.2PL0 Copyright (c) Steve Scherf et al.
# Submitted via: ExactAudioCopy v0.99pb4
#
DISCID=bc0e790d
DTITLE=Jody Watley - Larger Than Life
DYEAR=1989
DGENRE=R&B
TTITLE0=Real Love
TTITLE1=Friends
TTITLE2=Everything
TTITLE3=What 'Cha Gonna Do For Me
TTITLE4=L.O.V.E.R.
TTITLE5=For Love's Sake
TTITLE6=Lifestyle
TTITLE7=Precious Love
TTITLE8=Something New
TTITLE9=Once You Leave
TTITLE10=Come Into My Life
TTITLE11=Only You
TTITLE12=Real Love (Extended Version)
EXTD=
EXTT0=
EXTT1=
EXTT2=
EXTT3=
EXTT4=
EXTT5=
EXTT6=
EXTT7=
EXTT8=
EXTT9=
EXTT10=
EXTT11=
EXTT12=
PLAYORDER=
